<?xml version="1.0"?>
<svg xmlns="http://www.w3.org/2000/svg" width="432" height="106">
  <!-- branch fix/bob -->
  <g>
    <path d="M 226 48 L 228 48 C 240 48, 240 48, 240 60 L 240 76 C 240 88, 240 88, 252 88 L 254 88" stroke="#dd0000" stroke-width="2" fill="none" />
    <line x1="260" y1="88" x2="280" y2="88" stroke="#dd0000" stroke-width="2" />
    <circle cx="260" cy="88" r="6" fill="#fff" stroke="#dd0000" stroke-width="2" /><circle cx="280" cy="88" r="6" fill="#fff" stroke="#dd0000" stroke-width="2" />
    <text x="4" y="94" text-anchor="start" font-family="Verdana" font-size="14">fix/bob</text><text x="260" y="104" text-anchor="middle" font-family="Verdana" font-size="8">301</text><text x="280" y="104" text-anchor="middle" font-family="Verdana" font-size="8">302</text>
  </g>
  <!-- branch master -->
  <g>
    <path d="M 186 8 L 188 8 C 200 8, 200 8, 200 20 L 200 36 C 200 48, 200 48, 212 48 L 214 48" stroke="#0000dd" stroke-width="2" fill="none" /><path d="M 286 88 L 288 88 C 300 88, 300 88, 300 76 L 300 60 C 300 48, 300 48, 312 48 L 314 48" stroke="#dd0000" stroke-width="2" fill="none" />
    <line x1="100" y1="48" x2="120" y2="48" stroke="#000000" stroke-width="2" /><line x1="126" y1="48" x2="154" y2="48" stroke="#000000" stroke-width="2" /><line x1="140" y1="48" x2="160" y2="48" stroke="#000000" stroke-width="2" /><line x1="160" y1="48" x2="180" y2="48" stroke="#000000" stroke-width="2" /><line x1="180" y1="48" x2="220" y2="48" stroke="#000000" stroke-width="2" /><line x1="200" y1="48" x2="220" y2="48" stroke="#000000" stroke-width="2" /><line x1="226" y1="48" x2="254" y2="48" stroke="#000000" stroke-width="2" /><line x1="246" y1="48" x2="274" y2="48" stroke="#000000" stroke-width="2" /><line x1="260" y1="48" x2="280" y2="48" stroke="#000000" stroke-width="2" /><line x1="280" y1="48" x2="320" y2="48" stroke="#000000" stroke-width="2" /><line x1="300" y1="48" x2="320" y2="48" stroke="#000000" stroke-width="2" /><line x1="320" y1="48" x2="340" y2="48" stroke="#000000" stroke-width="2" /><line x1="340" y1="48" x2="360" y2="48" stroke="#000000" stroke-width="2" /><line x1="366" y1="48" x2="394" y2="48" stroke="#000000" stroke-width="2" /><line x1="380" y1="48" x2="400" y2="48" stroke="#000000" stroke-width="2" />
    <circle cx="100" cy="48" r="6" fill="#fff" stroke="#000000" stroke-width="2" /><circle cx="120" cy="48" r="6" fill="#fff" stroke="#000000" stroke-width="2" /><circle cx="160" cy="48" r="6" fill="#fff" stroke="#000000" stroke-width="2" /><circle cx="180" cy="48" r="6" fill="#fff" stroke="#000000" stroke-width="2" /><circle cx="220" cy="48" r="6" fill="#fff" stroke="#000000" stroke-width="2" /><circle cx="280" cy="48" r="6" fill="#fff" stroke="#000000" stroke-width="2" /><circle cx="320" cy="48" r="6" fill="#fff" stroke="#000000" stroke-width="2" /><circle cx="340" cy="48" r="6" fill="#fff" stroke="#000000" stroke-width="2" /><circle cx="360" cy="48" r="6" fill="#fff" stroke="#000000" stroke-width="2" /><circle cx="400" cy="48" r="6" fill="#fff" stroke="#000000" stroke-width="2" />
    <text x="4" y="54" text-anchor="start" font-family="Verdana" font-size="14">master</text><text x="100" y="64" text-anchor="middle" font-family="Verdana" font-size="8">201</text><text x="120" y="64" text-anchor="middle" font-family="Verdana" font-size="8">202</text><text x="160" y="64" text-anchor="middle" font-family="Verdana" font-size="8">203</text><text x="180" y="64" text-anchor="middle" font-family="Verdana" font-size="8">204</text><text x="220" y="64" text-anchor="middle" font-family="Verdana" font-size="8">205</text><text x="280" y="64" text-anchor="middle" font-family="Verdana" font-size="8">206</text><text x="320" y="64" text-anchor="middle" font-family="Verdana" font-size="8">207</text><text x="340" y="64" text-anchor="middle" font-family="Verdana" font-size="8">208</text><text x="360" y="64" text-anchor="middle" font-family="Verdana" font-size="8">209</text><text x="400" y="64" text-anchor="middle" font-family="Verdana" font-size="8">210</text>
  </g>
  <!-- branch fix/alice -->
  <g>
    <path d="M 126 48 L 128 48 C 140 48, 140 48, 140 36 L 140 20 C 140 8, 140 8, 152 8 L 154 8" stroke="#0000dd" stroke-width="2" fill="none" /><path d="M 366 48 L 368 48 C 380 48, 380 48, 380 36 L 380 20 C 380 8, 380 8, 392 8 L 394 8" stroke="#0000dd" stroke-width="2" fill="none" />
    <line x1="166" y1="8" x2="194" y2="8" stroke="#0000dd" stroke-width="2" />
    <circle cx="160" cy="8" r="6" fill="#fff" stroke="#0000dd" stroke-width="2" /><circle cx="400" cy="8" r="6" fill="#fff" stroke="#0000dd" stroke-width="2" />
    <text x="4" y="14" text-anchor="start" font-family="Verdana" font-size="14">fix/alice</text><text x="160" y="24" text-anchor="middle" font-family="Verdana" font-size="8">101</text><text x="400" y="24" text-anchor="middle" font-family="Verdana" font-size="8">102</text>
  </g>
<!-- thanks for using svgtree, see you soon -->
<!-- at https://github.com/fmasclef/svgtree -->
</svg>
